# xmcd CD database file generated by OrangeCD 6.3
#
# Track frame offsets:
#	150
#	21838
#	41093
#	60564
#	84306
#	106113
#	129946
#	148577
#	172751
#	188948
#
# Disc length: 3070 seconds
#
# Revision: 4
# Processed by: cddbd v1.5.2PL0 Copyright (c) Steve Scherf et al.
# Submitted via: OrangeCD 6.3
#
DISCID=780bfc0a
DTITLE=Vidar Busk - Venus, Texas
DYEAR=2001
DGENRE=Blues
TTITLE0=Venus, Texas
TTITLE1=Drive On
TTITLE2=Goodnight Moon
TTITLE3=Bubblin'
TTITLE4=Spooky
TTITLE5=Heart Broke
TTITLE6=Way Down South (110 In The Shade)
TTITLE7=U and I
TTITLE8=Jam Rap
TTITLE9=If I Had The Power
EXTD=
EXTT0=
EXTT1=
EXTT2=
EXTT3=
EXTT4=
EXTT5=
EXTT6=
EXTT7=
EXTT8=
EXTT9=
PLAYORDER=
